<?xml version="1.0" standalone="no"?>
<!DOCTYPE svg PUBLIC "-//W3C//DTD SVG 20010904//EN"
 "http://www.w3.org/TR/2001/REC-SVG-20010904/DTD/svg10.dtd">
<svg version="1.0" xmlns="http://www.w3.org/2000/svg"
 width="500.000000pt" height="500.000000pt" viewBox="0 0 500.000000 500.000000"
 preserveAspectRatio="xMidYMid meet">

<g transform="translate(0.000000,500.000000) scale(0.100000,-0.100000)"
fill="#000000" stroke="none">
<path d="M1000 3831 c0 -4 20 -11 45 -14 62 -9 99 -30 123 -71 11 -19 55 -133
97 -253 41 -120 151 -432 243 -693 l167 -475 128 -3 c98 -2 127 0 127 10 0 29
-88 300 -258 798 -99 289 -183 540 -187 558 -10 46 3 90 31 108 14 9 56 18
104 21 44 3 80 10 80 14 0 5 -157 9 -350 9 -192 0 -350 -4 -350 -9z"/>
<path d="M2060 3831 c0 -5 53 -11 118 -13 131 -6 166 -17 182 -61 18 -53 35 6
-240 -852 -148 -461 -182 -576 -176 -583 3 -3 8 -3 10 -1 4 4 121 362 249 764
25 77 73 226 107 330 34 105 69 210 76 235 38 119 84 160 195 168 38 2 69 9
69 13 0 5 -133 9 -295 9 -162 0 -295 -4 -295 -9z"/>
<path d="M3165 3078 c-77 -218 -265 -753 -265 -755 0 -2 5 -3 10 -3 13 0 13
-1 121 310 49 140 92 262 95 270 3 9 21 -33 41 -95 44 -138 130 -386 154 -442
l18 -43 136 0 c74 0 135 3 134 8 0 4 -64 176 -142 382 l-142 375 -78 3 c-56 2
-79 -1 -82 -10z"/>
<path d="M2570 2036 c0 -2 7 -7 16 -10 8 -3 12 -2 9 4 -6 10 -25 14 -25 6z"/>
<path d="M1965 2000 c-3 -6 1 -7 9 -4 18 7 21 14 7 14 -6 0 -13 -4 -16 -10z"/>
<path d="M2665 1663 c-84 -235 -114 -270 -242 -281 -34 -2 -63 -9 -63 -13 0
-5 131 -9 290 -9 287 0 382 11 191 23 -154 9 -195 34 -193 115 1 38 50 196 97
315 5 11 2 17 -7 17 -9 0 -35 -59 -73 -167z"/>
<path d="M3520 1820 c0 -5 21 -64 46 -132 52 -140 65 -224 41 -261 -19 -29
-81 -47 -161 -47 -31 0 -56 -4 -56 -10 0 -6 123 -10 350 -10 328 0 416 7 308
25 -75 13 -104 55 -182 264 l-69 181 -138 0 c-82 0 -139 -4 -139 -10z"/>
</g>
</svg>
